<svg xmlns="http://www.w3.org/2000/svg" xmlns:xlink="http://www.w3.org/1999/xlink" width="29" height="28" version="1.1" viewBox="0 0 29 28"><g id="final" fill="none" fill-rule="evenodd" stroke="none" stroke-width="1"><g id="400_kflow" transform="translate(-190.000000, -180.000000)"><rect width="1320" height="940" x="0" y="0" fill="#3B78E7"/><g id="Group-10" fill="#FFF" transform="translate(190.000000, 180.000000)"><g id="Group-3"><g id="Group"><path id="Fill-1" d="M7.89721739,9.52532609 L8.51656522,25.0622826 L19.7401522,10.7401304 C19.910587,10.5228261 20.1607609,10.3826739 20.4351304,10.3510217 C20.710413,10.3192174 20.9852391,10.3986522 21.2007174,10.5715217 L28.2023913,16.1890217 L25.923587,6.20473913 L7.89721739,9.52532609"/><polyline id="Fill-2" points="8.909 27.913 18.865 27.913 12.752 23.009 8.909 27.913"/><polyline id="Fill-3" points="20.722 12.838 14.028 21.382 21.161 27.105 27.928 18.619 20.722 12.838"/><path id="Fill-4" d="M6.02076087,8.02626087 C6.02106522,8.02580435 6.02152174,8.02534783 6.02197826,8.0248913 L11.909587,0.641869565 L2.41484783,5.21423913 L0.0698478261,15.4885652 L6.02076087,8.02626087"/><polyline id="Fill-5" points=".201 18.64 6.507 26.548 5.906 11.486 .201 18.64"/><polyline id="Fill-6" points="24.09 4.44 15.011 .068 9.361 7.153 24.09 4.44"/></g></g></g></g></g></svg>